<?xml version="1.0" standalone="no"?>
<!DOCTYPE svg PUBLIC "-//W3C//DTD SVG 20010904//EN"
 "http://www.w3.org/TR/2001/REC-SVG-20010904/DTD/svg10.dtd">
<svg version="1.0" xmlns="http://www.w3.org/2000/svg"
 width="700.000000pt" height="700.000000pt" viewBox="0 0 700.000000 700.000000"
 preserveAspectRatio="xMidYMid meet">
<metadata>
Created by potrace 1.14, written by Peter Selinger 2001-2017
</metadata>
<g transform="translate(0.000000,700.000000) scale(0.100000,-0.100000)"
fill="#000000" stroke="none">
<path d="M3155 6955 c-240 -28 -373 -52 -568 -105 -485 -133 -912 -354 -1302
-675 -101 -84 -293 -268 -375 -360 -25 -28 -60 -68 -79 -89 -18 -21 -75 -95
-125 -164 -377 -518 -591 -1071 -660 -1705 -14 -121 -14 -603 -2 -712 6 -49
31 -212 41 -270 75 -410 250 -862 468 -1205 47 -74 186 -272 196 -280 4 -3 14
-15 22 -27 52 -77 228 -266 369 -398 314 -293 731 -553 1125 -700 257 -96 485
-152 805 -200 183 -27 691 -28 835 -1 11 2 43 7 70 10 75 11 115 17 139 22 11
2 35 7 51 10 17 3 50 10 75 15 25 6 53 12 62 14 78 16 363 102 413 125 11 5
61 25 110 45 283 115 627 322 872 526 644 538 1059 1245 1207 2059 41 225 51
348 51 620 0 194 -9 368 -20 402 -2 7 -6 38 -9 68 -24 226 -113 564 -220 827
-102 254 -283 575 -433 768 -13 17 -27 35 -31 40 -10 14 -82 105 -107 134 -72
86 -202 220 -301 311 -100 90 -125 112 -214 181 -500 385 -1072 624 -1690 704
-25 3 -63 8 -85 11 -85 12 -581 12 -690 -1z"/>
</g>
</svg>
