<?xml version="1.0" standalone="no"?>
<!DOCTYPE svg PUBLIC "-//W3C//DTD SVG 20010904//EN"
 "http://www.w3.org/TR/2001/REC-SVG-20010904/DTD/svg10.dtd">
<svg version="1.0" xmlns="http://www.w3.org/2000/svg"
 width="250.000000pt" height="250.000000pt" viewBox="0 0 250.000000 250.000000"
 preserveAspectRatio="xMidYMid meet">
<metadata>
Created by potrace 1.14, written by Peter Selinger 2001-2017
</metadata>
<g transform="translate(0.000000,250.000000) scale(0.100000,-0.100000)"
fill="#000000" stroke="none">
<path d="M1065 2485 c-158 -25 -225 -46 -371 -117 -301 -148 -531 -416 -634
-742 -30 -92 -34 -111 -48 -201 -13 -93 -7 -324 12 -415 78 -375 306 -684 637
-863 87 -47 265 -110 343 -123 21 -3 48 -8 60 -11 11 -2 85 -6 164 -7 327 -7
605 95 850 309 192 168 350 437 393 668 5 29 12 63 15 77 10 45 12 283 3 355
-8 58 -18 105 -43 200 -3 11 -8 23 -39 105 -95 250 -308 490 -559 628 -71 40
-211 96 -266 107 -37 8 -57 13 -57 15 0 1 -11 3 -25 5 -14 2 -38 6 -55 10 -57
12 -300 12 -380 0z"/>
</g>
</svg>
