<?xml version="1.0" standalone="no"?>
<!DOCTYPE svg PUBLIC "-//W3C//DTD SVG 20010904//EN"
 "http://www.w3.org/TR/2001/REC-SVG-20010904/DTD/svg10.dtd">
<svg version="1.0" xmlns="http://www.w3.org/2000/svg"
 width="3000.000000pt" height="3000.000000pt" viewBox="0 0 3000.000000 3000.000000"
 preserveAspectRatio="xMidYMid meet">
<metadata>
Created by potrace 1.14, written by Peter Selinger 2001-2017
</metadata>
<g transform="translate(0.000000,3000.000000) scale(0.100000,-0.100000)"
fill="#000000" stroke="none">
<path d="M16757 21384 c-1 -1 -69 -5 -152 -8 -82 -4 -170 -9 -195 -11 -105 -9
-186 -17 -204 -21 -10 -2 -44 -6 -75 -9 -31 -4 -63 -8 -71 -10 -8 -3 -31 -7
-50 -10 -72 -11 -151 -27 -255 -50 -38 -8 -72 -14 -75 -13 -3 1 -14 -4 -26
-10 -11 -6 -32 -13 -46 -16 -33 -6 -264 -82 -303 -100 -16 -8 -59 -26 -95 -41
-323 -134 -663 -394 -866 -665 -102 -135 -221 -343 -292 -510 -57 -132 -154
-459 -177 -590 -28 -167 -42 -266 -50 -350 -4 -36 -8 -76 -11 -90 -8 -49 -17
-328 -18 -517 l0 -193 -608 0 -608 0 0 -77 c-1 -94 -1 -965 0 -975 0 -5 286
-8 635 -8 l635 0 0 -4210 0 -4210 590 0 590 0 0 33 c1 17 1 1912 1 4210 l1
4177 989 0 989 0 0 530 0 530 -997 2 -998 3 1 205 c1 189 10 415 19 463 3 10
7 45 11 76 3 31 8 58 9 61 2 3 6 26 10 50 11 79 54 238 91 338 178 480 529
739 1159 856 71 14 155 28 185 31 30 3 71 8 90 10 86 10 278 22 383 24 l37 1
0 545 c0 429 -3 545 -12 546 -22 2 -240 4 -241 3z"/>
<path d="M1831 21240 c-4 -3 -7 -444 -7 -980 l1 -975 609 0 609 0 0 973 c0
535 -3 975 -7 979 -7 7 -1194 10 -1205 3z"/>
<path d="M22048 20504 c-93 -22 -177 -70 -248 -143 -101 -102 -148 -216 -148
-355 0 -133 32 -227 112 -328 51 -64 87 -94 166 -136 65 -34 103 -45 270 -73
69 -11 163 -30 210 -41 106 -24 116 -27 165 -37 190 -42 632 -187 870 -286
378 -157 766 -368 1094 -593 99 -68 237 -168 257 -187 7 -5 24 -19 40 -30 37
-27 180 -142 224 -181 285 -252 509 -479 709 -719 353 -424 663 -920 887
-1423 152 -341 312 -827 378 -1152 49 -240 49 -239 71 -388 3 -21 7 -47 9 -58
5 -26 15 -104 31 -242 49 -434 579 -609 888 -295 91 92 149 248 141 379 -3 61
-11 140 -18 184 -3 14 -7 52 -11 85 -4 32 -8 62 -10 65 -1 3 -5 28 -9 55 -6
52 -7 58 -32 195 -9 47 -18 95 -20 107 -11 61 -77 341 -103 438 -100 377 -221
716 -387 1087 -45 101 -192 399 -231 468 -11 19 -35 62 -53 95 -51 92 -198
333 -244 400 -23 33 -47 72 -55 88 -8 15 -18 27 -23 27 -4 0 -8 5 -8 11 0 6
-6 17 -12 24 -7 8 -23 29 -36 47 -345 500 -817 1006 -1327 1423 -136 111 -376
288 -530 392 -93 62 -319 204 -345 216 -8 4 -28 15 -45 25 -16 10 -50 30 -75
44 -25 14 -63 35 -85 48 -81 46 -414 209 -530 260 -401 175 -940 353 -1285
425 -101 21 -281 58 -300 61 -14 3 -52 9 -85 15 -94 17 -205 18 -267 3z"/>
<path d="M21525 18551 c-260 -77 -414 -319 -373 -589 11 -76 76 -206 133 -265
79 -83 200 -145 310 -160 61 -9 340 -74 435 -103 187 -55 408 -137 555 -204
114 -52 287 -139 330 -165 22 -14 50 -29 63 -35 36 -16 253 -155 354 -228 249
-177 481 -383 681 -603 37 -41 75 -83 86 -94 78 -85 264 -332 353 -470 259
-402 446 -830 567 -1300 31 -118 34 -134 47 -205 4 -19 8 -44 10 -55 2 -11 13
-73 24 -138 12 -65 28 -139 37 -165 52 -155 203 -288 372 -328 57 -14 196 -10
252 6 119 36 237 124 301 225 70 112 92 261 62 430 -41 235 -93 476 -124 580
-5 17 -16 53 -25 81 -9 28 -17 59 -20 70 -2 10 -28 91 -59 179 -99 290 -228
583 -368 834 -32 58 -58 106 -58 107 0 9 -185 298 -253 394 -78 111 -224 303
-278 365 -14 17 -61 71 -104 120 -153 175 -430 443 -599 579 -21 17 -53 43
-70 57 -17 14 -76 60 -131 101 -523 391 -1099 678 -1733 862 -68 20 -133 38
-145 40 -12 2 -51 12 -87 21 -36 9 -74 19 -85 21 -11 2 -72 15 -135 28 -141
29 -245 31 -325 7z"/>
<path d="M8157 18363 c-1 0 -56 -4 -122 -7 -113 -6 -151 -9 -250 -21 -22 -3
-60 -7 -85 -10 -39 -5 -99 -14 -205 -31 -403 -64 -882 -236 -1230 -442 -129
-77 -381 -251 -405 -281 -3 -3 -30 -26 -60 -51 -103 -84 -252 -227 -373 -357
l-57 -62 0 535 0 534 -590 0 c-324 0 -591 -3 -591 -7 -4 -23 -4 -9450 -1
-9460 3 -10 131 -13 593 -13 l589 0 1 2533 c0 1392 2 2604 4 2692 7 287 28
698 40 775 2 14 7 54 10 90 3 36 8 76 10 90 2 14 7 45 10 70 9 72 35 197 61
304 203 812 757 1446 1524 1745 47 19 94 37 105 42 59 24 338 97 430 113 107
18 262 38 335 44 178 14 705 5 801 -13 10 -2 44 -6 76 -10 32 -3 94 -12 138
-20 44 -8 94 -17 111 -20 17 -2 82 -18 146 -35 927 -240 1434 -835 1643 -1925
9 -45 34 -203 40 -250 11 -85 13 -98 20 -170 13 -118 23 -259 30 -405 2 -36 4
-1322 4 -2857 l1 -2793 600 0 600 0 0 83 c2 650 -2 5376 -5 5442 -5 169 -16
420 -20 480 -2 33 -7 101 -10 150 -3 50 -8 110 -10 135 -3 25 -7 70 -10 100
-10 104 -16 155 -20 180 -3 14 -7 50 -10 80 -6 52 -20 151 -29 196 -2 12 -7
39 -10 60 -12 76 -96 401 -132 509 -69 209 -189 486 -270 622 -11 17 -33 55
-50 85 -94 160 -298 411 -460 568 -245 236 -495 412 -812 570 -237 119 -547
232 -762 280 -19 5 -44 11 -55 13 -86 21 -163 38 -217 47 -35 5 -72 12 -84 14
-12 2 -45 7 -75 11 -30 4 -56 8 -59 10 -3 2 -43 6 -89 10 -47 4 -92 8 -102 10
-57 11 -652 28 -662 18z"/>
<path d="M1824 13430 l0 -4740 608 0 608 0 1 28 c1 35 1 9423 0 9440 -1 9
-130 12 -609 12 l-608 0 0 -4740z"/>
<path d="M19593 16638 c-87 -13 -312 -75 -469 -129 -510 -175 -965 -439 -1370
-794 -88 -77 -308 -298 -354 -355 -19 -24 -42 -51 -51 -59 -8 -9 -42 -50 -75
-91 -32 -41 -61 -77 -65 -80 -9 -8 -120 -168 -170 -245 -82 -126 -174 -288
-238 -420 -35 -71 -67 -138 -72 -147 -18 -34 -91 -224 -124 -318 -70 -206
-113 -362 -150 -555 -8 -37 -36 -217 -41 -259 -3 -22 -7 -54 -9 -71 -25 -175
-26 -740 -1 -870 2 -11 7 -51 11 -89 9 -89 7 -80 61 -362 5 -27 49 -195 68
-259 1 -5 8 -30 15 -55 15 -52 97 -281 116 -325 8 -16 26 -59 41 -95 74 -181
246 -493 372 -675 234 -338 533 -658 842 -899 47 -37 92 -72 100 -79 90 -73
366 -244 544 -336 115 -60 172 -87 316 -148 19 -8 44 -19 55 -24 68 -28 290
-102 400 -133 148 -41 134 -38 275 -66 143 -29 115 -25 340 -56 223 -30 640
-35 865 -10 163 19 162 19 240 31 22 3 51 8 65 11 14 2 39 7 55 10 25 4 177
37 225 49 133 32 311 85 385 115 11 5 58 23 105 40 339 127 712 338 1026 581
260 201 526 468 723 724 17 22 34 45 39 50 100 126 307 461 381 620 13 28 43
91 66 140 44 94 123 297 157 400 45 143 93 315 104 380 3 17 9 46 14 65 16 60
5 218 -20 283 -64 168 -215 297 -390 333 -50 10 -157 7 -215 -6 -137 -31 -281
-144 -342 -270 -17 -36 -43 -117 -57 -180 -41 -177 -97 -350 -174 -535 -95
-230 -297 -554 -476 -765 -47 -56 -306 -311 -359 -355 -548 -450 -1221 -696
-1917 -699 -109 0 -338 11 -378 19 -11 2 -43 6 -72 10 -29 4 -62 9 -74 11 -12
2 -37 7 -56 10 -138 23 -401 100 -555 161 -865 346 -1511 1055 -1784 1958 -17
55 -33 111 -35 125 -6 32 -13 64 -26 120 -13 59 -28 153 -35 215 -3 28 -10 84
-15 125 -8 76 -6 524 3 570 3 14 8 52 12 85 4 32 9 68 11 80 2 11 7 36 9 55 3
19 8 46 11 60 3 14 8 36 11 50 20 112 104 386 155 505 63 151 188 387 266 505
274 416 607 729 1057 992 170 100 546 251 705 283 220 45 345 119 433 257 137
213 96 496 -98 666 -110 97 -265 142 -412 120z"/>
<path d="M21300 16344 c-186 -51 -325 -190 -374 -374 -21 -79 -15 -219 12
-295 44 -121 134 -227 244 -285 31 -17 98 -43 150 -59 100 -31 159 -52 225
-82 24 -10 45 -19 48 -19 3 0 52 -23 108 -51 269 -134 493 -294 698 -499 139
-139 173 -176 224 -245 17 -22 36 -46 43 -54 45 -48 200 -300 259 -421 38 -79
48 -102 87 -192 7 -18 26 -69 41 -113 48 -139 85 -205 150 -270 108 -106 238
-157 388 -150 205 8 376 128 454 317 32 78 38 112 37 213 -1 60 -8 102 -29
165 -26 81 -86 242 -105 285 -60 134 -150 313 -200 401 -65 113 -213 339 -252
386 -13 15 -34 42 -48 60 -112 146 -341 388 -485 513 -151 130 -362 283 -540
390 -81 49 -327 176 -400 207 -22 9 -69 29 -105 44 -84 35 -212 79 -325 113
-107 32 -223 38 -305 15z"/>
<path d="M20335 13752 c-71 -7 -196 -36 -268 -63 -153 -55 -279 -138 -401
-262 -358 -365 -411 -920 -128 -1350 151 -230 426 -416 682 -462 108 -20 145
-23 250 -20 120 4 134 6 238 31 296 73 559 287 700 569 80 159 112 310 107
505 -3 143 -4 153 -36 270 -106 388 -454 702 -854 769 -69 12 -232 19 -290 13z"/>
</g>
</svg>
